<?xml version="1.0" encoding="UTF-8"?>
<svg xmlns="http://www.w3.org/2000/svg" xml:lang="en-US"
	version="1.0" viewBox="0 0 110 60" width="110" height="60"
	xmlns:xlink="http://www.w3.org/1999/xlink"
>

<g transform="translate(5,5)">
	<rect x="0" y="0" width="100" height="100" fill="white"/>
	<path fill="none" stroke="black" stroke-width="2.5" stroke-linecap="square" stroke-linejoin="miter" d="
		M 0 0
		v 30
		h 10
		m -10 0
		v 20
		h 90
		M 10 0
		H 100
		v 50
		M 30 0
		v 20
		h -20
		v -10
		h 10
		m 10 10
		h 10
		v 10
		h -10
		v 10
		h -20
		m 10 -20
		v 10
		m 20 -20
		h 10
		v 10
		h 10
		v 10
		h 20
		v -20
		m 10 0
		h -20
		v 10
		m 0 10
		v 10
		h -20
		v -10
		m 10 10
		v 10
		m -20 -10
		v 10
		M 100 40
		h -20
		M 100 20
		h -10
		v 10
	"/>
	<path fill="black" stroke="none" d="
		M 4 -1.25
		h 2
		v 3
		h 2
		l -3 3
		l -3 -3
		h 2
		Z
	"/>
	<path fill="black" stroke="none" d="
		M 94 45
		h 2
		v 3
		h 2
		l -3 3
		l -3 -3
		h 2
		Z
	"/>
</g>
</svg>
